<?xml version="1.0" encoding="UTF-8" standalone="no"?>
<!-- Created with Inkscape (http://www.inkscape.org/) -->

<svg
   version="1.1"
   id="svg2"
   xml:space="preserve"
   width="2770.0852"
   height="888.86664"
   viewBox="0 0 2770.0852 888.86664"
   sodipodi:docname="logo.svg"
   inkscape:version="1.1 (c68e22c387, 2021-05-23)"
   xmlns:inkscape="http://www.inkscape.org/namespaces/inkscape"
   xmlns:sodipodi="http://sodipodi.sourceforge.net/DTD/sodipodi-0.dtd"
   xmlns="http://www.w3.org/2000/svg"
   xmlns:svg="http://www.w3.org/2000/svg"><defs
     id="defs6" /><sodipodi:namedview
     id="namedview4"
     pagecolor="#ffffff"
     bordercolor="#666666"
     borderopacity="1.0"
     inkscape:pageshadow="2"
     inkscape:pageopacity="0.0"
     inkscape:pagecheckerboard="0"
     showgrid="false"
     fit-margin-top="0"
     fit-margin-left="0"
     fit-margin-right="0"
     fit-margin-bottom="0"
     inkscape:zoom="0.092932609"
     inkscape:cx="2248.9415"
     inkscape:cy="957.68322"
     inkscape:window-width="1280"
     inkscape:window-height="656"
     inkscape:window-x="0"
     inkscape:window-y="0"
     inkscape:window-maximized="1"
     inkscape:current-layer="g8" /><g
     id="g8"
     inkscape:groupmode="layer"
     inkscape:label="ink_ext_XXXXXX"
     transform="matrix(1.3333333,0,0,-1.3333333,218.56257,1821.6371)"><g
       id="g10"
       transform="matrix(0.1,0,0,0.1,-571.79793,-14.72211)"><path
         d="m 21738,7844.7 v 350.9 h -4155.1 v 350.8 h 6925.2 v 350.9 h 346.3 V 12406 h -346.3 v 350.8 H 5463.79 v 701.8 h -346.25 v 350.9 H 4078.76 v -350.9 h 346.25 v -701.8 h 346.26 v -1052.6 h -346.26 v -701.7 h -346.25 v -350.9 h 1038.78 v 350.9 h 346.25 v 701.7 h 346.26 v -350.8 h 692.53 v -350.9 h 692.52 v -350.9 h 692.51 v -350.8 h 692.53 v -350.9 h 692.52 V 9599 h 1038.74 v -350.8 h 346.3 v -350.9 h 1038.8 v -350.9 h 692.5 v -350.8 h 1385 v -350.9 h 7964"
         style="fill:#469ebb;fill-opacity:1;fill-rule:evenodd;stroke:none"
         id="path14" /><path
         d="m 16544.1,7143 h 346.3 v 350.8 h 346.2 v 350.9 c -346.2,0 -692.5,0 -1038.8,0 v -350.9 h -692.5 V 7143 h 1038.8"
         style="fill:#357488;fill-opacity:1;fill-rule:evenodd;stroke:none"
         id="path16" /><path
         d="m 21391.7,8195.6 h 346.3 v 350.8 h -4155.1 v -350.8 h 3808.8"
         style="fill:#e5e5e5;fill-opacity:1;fill-rule:evenodd;stroke:none"
         id="path18" /><path
         d="m 16890.4,8546.4 h 346.2 v 350.9 h -346.2 v -350.9"
         style="fill:#1d4450;fill-opacity:1;fill-rule:evenodd;stroke:none"
         id="path20" /><path
         d="m 7887.61,12756.8 h 2423.79 v 350.9 H 7887.61 Z M 16890.4,8897.3 h 346.2 v 350.9 h -346.2 z M 14812.8,7844.7 h -346.3 v -350.9 c -230.8,0 -461.6,0 -692.5,0 V 7143 c 461.7,0 923.4,0 1385.1,0 v 350.8 h 346.2 v 1052.6 h -692.5 z m -692.5,4912.1 h 346.2 v 350.9 h -1731.2 v 350.9 h -1385.1 v -350.9 h 346.3 v -350.9 h 2423.8 v 0"
         style="fill:#3d88a2;fill-opacity:1;fill-rule:evenodd;stroke:none"
         id="path22" /></g></g></svg>
